<svg width="2573" height="1449" viewBox="0 0 2573 1449" fill="none" xmlns="http://www.w3.org/2000/svg">
<path d="M2464.5 1.5C2461 16.5 2460.5 20.5 2464.5 24.5C2468.5 28.5 2471.5 30 2474 35.5C2477.41 43.0071 2480.77 64.3556 2482 73C2482.71 78 2484.5 82.4231 2489 89C2495.5 98.5 2495.66 102.329 2493.5 108C2489.5 118.5 2489 118.5 2489.5 121C2490 123.5 2491.5 130.5 2495 126.5C2498.5 122.5 2501.5 114 2507 115.5C2512.5 117 2514 122 2511.5 126.5C2509 131 2500.5 133 2501.5 136.5C2502.5 140 2519.5 146 2520 150.5C2520.5 155 2516 157.5 2518.5 159.5C2520.38 161 2527 159 2532 167.5C2537 176 2539 173.5 2540.5 180C2542 186.5 2542.5 190.5 2546.5 195C2550.5 199.5 2556 206.5 2557 212.5C2558 218.5 2558.5 226.5 2561 231.5C2563 235.5 2567.83 244.5 2570 248.5M1269.5 1C1283.5 15.5 1291.5 27.5 1301 29.5C1310.5 31.5 1312.02 27.7128 1315.5 22.5C1318.5 18 1318 6 1317 1M1500.5 1446C1485.5 1433.5 1488 1435 1483 1431.5C1478 1428 1477.98 1429.48 1474.5 1427C1471 1424.5 1468.93 1419.37 1466.5 1415C1464 1410.5 1464.5 1408.5 1462 1406.5C1459.5 1404.5 1456 1402 1452.5 1397C1449 1392 1447 1405 1443 1405.5C1439 1406 1438 1407 1435.5 1404C1433 1401 1428.5 1395.5 1426 1393.5C1423.5 1391.5 1422 1388.5 1418.5 1387.5C1415 1386.5 1409.5 1385 1407.5 1383C1401 1379.67 1387.9 1371.5 1387.5 1365.5C1387 1358 1381 1349.93 1378 1346.5C1374.5 1342.5 1368.5 1336 1368.5 1334C1368.33 1327 1367.7 1311.9 1366.5 1307.5C1365 1302 1363.5 1298 1364 1293C1364.5 1288 1365 1287 1368 1287C1371 1287 1371.5 1286 1374.5 1288.5C1377.5 1291 1379.5 1292 1382 1293C1384.5 1294 1387 1295 1391 1295C1395 1295 1396.5 1294 1400 1294C1403.5 1294 1408.54 1293.49 1412 1293C1415.5 1292.5 1421 1292 1426 1292C1430.61 1292 1433.5 1293 1436.5 1295C1439.5 1297 1441 1297 1445.5 1300C1450 1303 1450 1304 1452 1307C1454 1310 1454.56 1312.61 1456.5 1316C1458.5 1319.5 1459.5 1320 1462.5 1323C1465.84 1326.34 1469 1325.5 1472.5 1327.5C1475.89 1329.44 1481 1335.5 1484 1337.5C1487 1339.5 1492.5 1344.5 1495.5 1347C1498.5 1349.5 1502.5 1354 1506.5 1355.5C1511.83 1356 1523.9 1357.7 1529.5 1360.5C1536.5 1364 1534.5 1364 1540 1364.5C1545.5 1365 1557.5 1363.5 1559.5 1361.5C1561.5 1359.5 1567.5 1351.5 1568 1345.5C1568.5 1339.5 1571 1330 1573.5 1327.5C1576 1325 1593 1310.5 1593.5 1306.5C1594 1302.5 1593 1291.5 1592 1289.5C1591 1287.5 1591.5 1280.5 1593.5 1277C1595.5 1273.5 1598 1270.5 1602 1270C1606 1269.5 1609.5 1270.5 1615.5 1269C1621.5 1267.5 1635.5 1259 1641 1253C1646.5 1247 1648.5 1243.5 1651.5 1237C1654.5 1230.5 1657.5 1226 1658 1221C1658.5 1216 1663.5 1202 1665 1197.5C1666.5 1193 1669 1182.5 1671 1177C1673 1171.5 1674 1163 1673.5 1160.5C1673 1158 1668 1152.5 1669 1147.5C1670 1142.5 1681.5 1139 1687 1136.5C1692.5 1134 1700.5 1130 1704.5 1129.5C1708.5 1129 1713.5 1128 1717.5 1124.5C1721.5 1121 1728 1116.5 1729 1111C1730 1105.5 1729.5 1088.5 1727.5 1083.5C1725.5 1078.5 1723.5 1066.5 1725.5 1060.5C1727.5 1054.5 1732.5 1055 1734.5 1053C1736.5 1051 1738 1050 1737.5 1044.5C1737 1039 1736 1031.5 1734.5 1027C1733 1022.5 1731.5 1017 1731.5 1014C1731.5 1011 1731.5 1007.5 1730 1003.5C1728.5 999.5 1726.5 993 1726.5 989.5C1726.5 986 1723 981 1723 978C1723 975 1721.5 971.5 1723.5 968.5C1725.5 965.5 1728.5 967 1731 963.5C1733.5 960 1735.5 960.5 1735.5 958C1735.5 955.5 1735.5 956 1733.5 953.5C1731.5 951 1726.5 954.5 1723.5 954.5C1720.5 954.5 1719.5 956.5 1716.5 953.5C1713.5 950.5 1710 948.5 1709.5 945C1709 941.5 1706.5 938.5 1709.5 934.5C1712.5 930.5 1715.5 933.5 1717 931.5C1720 927 1721 928.5 1721.5 923C1722 917.5 1722 905.5 1723.5 903.5C1725 901.5 1729 897.5 1728.5 893.5C1728 889.5 1726.5 878.5 1726.5 875C1726.5 870.5 1734.5 863.5 1734.5 857.5C1734.5 851.5 1735.07 848.574 1732.5 846C1729.5 843 1724.5 849 1721.5 846C1718.5 843 1716.5 842.5 1717.5 838C1718.5 833.5 1720.07 833 1721.5 829C1724 822 1729.7 807.5 1732.5 805.5C1734.83 801.667 1740.6 793.5 1745 791.5C1750.5 789 1747 788 1751.5 787.5C1756 787 1749 792 1748 795C1747 798 1744.5 802.5 1744 805.5C1743.5 808.5 1743.5 811 1742.5 816C1741.5 821 1738.5 824 1740 827.5C1741.5 831 1741 831 1745.5 831C1750 831 1758.5 820 1761.5 817.5C1764.5 815 1776.5 803 1779.5 798.5C1782.5 794 1790 784 1790.5 780.5C1791 777 1792 772.5 1792.5 767.5C1793 762.5 1798 753.5 1804.5 747.5C1811 741.5 1811.5 736.5 1817.5 736.5C1823.5 736.5 1821.5 739.5 1826.5 738C1831.5 736.5 1831 733 1836 733C1841 733 1854.5 733 1858 734C1861.5 735 1866.5 733 1869.5 736.5C1871.33 739.667 1876.5 746.4 1882.5 748C1890 750 1888.5 753 1892 754C1895.5 755 1897.5 755.5 1900.5 755C1903.5 754.5 1905.64 754 1906 751.5C1906.5 748 1907 746.5 1905 743C1903 739.5 1901 739 1900.5 736.5C1900 734 1899 732.5 1897 730.5C1894 726 1890 726.5 1887.5 719C1887.33 717.5 1888 714.3 1892 713.5C1897 712.5 1896.5 716 1900 717C1903.5 718 1908.5 718.5 1910.5 717C1912.5 715.5 1919.5 711.5 1922.5 707.5C1925.5 703.5 1928 700.5 1931.5 693.5C1935 686.5 1938 691 1939.5 692C1941 693 1944 697 1947.5 698C1951 699 1955.5 703 1957.5 705.5C1959.5 708 1963.5 713 1968.5 715.5C1973.5 718 1975 717 1979 722C1983 727 1986 730 1990.5 731.5C1995 733 2000.5 729.5 2004 733C2007.5 736.5 2008 739.5 2011 741.5C2014 743.5 2015.5 740 2018.5 744C2021.5 748 2025 751.5 2025.5 756C2026 760.5 2024 761.5 2026 764.5C2028 767.5 2033.5 781 2033.5 784C2033.5 787 2035 790.5 2035.5 792C2036 793.5 2039 805.5 2041.5 809C2044 812.5 2046 820.5 2049.5 824C2053 827.5 2071 836 2072 841C2073 846 2072.5 849.5 2073.5 854.5C2074.5 859.5 2075 865.5 2075 869.5C2075 873.308 2075 877.5 2070.5 881.5C2064.24 887.064 2053.5 890.5 2048 898.5C2044.53 903.542 2038.78 910.5 2038.5 919C2038.17 929.167 2037.1 950.7 2035.5 955.5C2034.5 960.5 2032.6 972.4 2033 980C2033.5 989.5 2035.5 992.417 2035.5 998.5C2035.5 1015.5 2033 1021.5 2030 1025.5C2021.17 1033.33 2006 1048 1993.5 1049.5C1986.97 1050.28 1985.2 1055.5 1984 1058.5C1981 1066 1979.8 1084.4 1977 1090C1975.17 1093.33 1971.65 1101 1971.5 1105C1970.5 1132.5 1971.5 1143 1971.5 1145C1971.5 1148.61 1965.64 1153 1963.5 1156.5C1961.67 1159.5 1960.79 1166.35 1960 1171.5C1959 1178 1955.5 1187.5 1953.5 1189L1949.5 1191.5C1948.5 1192.5 1946.17 1191 1946 1190.5C1945.5 1189 1942.5 1185.5 1942.5 1182.5C1942.5 1179.5 1942 1172.5 1943 1168C1944 1163.5 1944.5 1161 1946 1158.5C1947.5 1156 1948.08 1154.81 1950 1150.5C1952 1146 1954.02 1144.12 1953.5 1141C1953 1138 1948.5 1141.5 1947 1143C1945.5 1144.5 1943.74 1145.15 1941.5 1148.5C1939.5 1151.5 1933.5 1162.5 1933.5 1165.5C1932.33 1169.67 1930.7 1178.9 1933.5 1182.5C1937 1187 1938.5 1186.5 1938.5 1190.5C1938.5 1194.5 1938 1195 1940 1198C1942 1201 1943 1201 1943.5 1204C1944.08 1207.45 1943 1207.5 1942 1209C1941 1210.5 1932.5 1216.5 1931 1219.5C1929.5 1222.5 1926.5 1225.5 1926 1228C1924.83 1233.17 1922.3 1244.6 1921.5 1249C1920.5 1254.5 1919 1254.5 1922.5 1263.5C1926 1272.5 1929.5 1269 1932.5 1267C1935.5 1265 1941.5 1257.5 1943 1253.5C1944.5 1249.5 1946.6 1238.48 1949.5 1235C1952 1232 1950.5 1222.5 1955.5 1218.5C1960.5 1214.5 1961 1223.5 1961 1228C1961 1232.5 1960 1238 1958.5 1244C1956.8 1250.79 1956 1250.5 1955.5 1255.5C1954.99 1260.57 1958 1266 1960 1269.5C1961.83 1272 1965.6 1277.6 1966 1280C1966.5 1283 1967.5 1285.5 1967 1289C1966.5 1292.5 1968 1293.5 1968 1296C1968 1298.5 1965 1299.5 1963 1302.5C1961 1305.5 1966.53 1305.91 1969 1305.5C1972 1305 1974.5 1304 1975 1309C1975.47 1313.72 1975.83 1317 1976.5 1321C1977.5 1327 1980 1338 1982 1342C1984.25 1346.5 1989.5 1352.9 1989.5 1356.5C1989.5 1361 1988.5 1367.5 1990 1373.5C1991.5 1379.5 1992.51 1384.57 1993.5 1392C1994 1395.75 1995.15 1407.5 1993.5 1418.5C1992 1428.5 1992.67 1438.5 1993 1440.5C1993.5 1443.5 1993.5 1444.33 1993.5 1445.5M8 243C15 261 18 267 18.5 275C19 283 17 295.5 16 300.5C15.3422 303.789 11.6662 321.751 9.5 325C7.5 328 6.16667 329.667 5 330M7.5 878C22.5 880 29 875.5 40 878C51 880.5 54 883.5 57.5 887C61 890.5 106.5 934 117 935.5C127.5 937 125 934.5 135 932.5C145 930.5 151.5 935.5 163 935.5C171.5 935.5 175 936.5 178 939.5C181 942.5 180.879 943.086 183 944.5C186 946.5 188 945.409 191.5 947C193.333 947.833 197 950.6 199 955C201.5 960.5 207 968 207.5 976.5C208 985 201 990.5 201.5 1002C202 1013.5 205.5 1015 208.5 1019C211.5 1021.5 212.84 1022 214.5 1026.5C215.422 1029 216 1032 214.5 1035C213 1038 200 1051 198 1057.5C196 1064 194.5 1064.5 190 1070C185.5 1075.5 177.5 1086.5 172.5 1088C167.5 1089.5 160.5 1088 157 1088C153.646 1088 151 1089.5 151.5 1091.5C152 1093.5 159.5 1092.5 161.5 1096C164.638 1101.49 162.651 1109.83 163.5 1114.5C164.5 1120 167 1124 170 1127C172.8 1135 172.167 1142 171.5 1144.5C168.5 1148.33 162.3 1156.6 161.5 1159C160.5 1162 151.75 1174.5 150.5 1182C149.5 1188 151.5 1214 151.5 1221.5C151.5 1228.78 150.5 1232 150.5 1235C150.5 1238 154.5 1241.5 153 1246C151.5 1250.5 141 1262 140 1266.5C139 1271 141 1277 139 1280.5C137 1284 130 1283.5 125 1286.5C120 1289.5 111.5 1292.5 110.5 1300C109.5 1307.5 115.5 1314.5 117 1316C118.5 1317.5 122.5 1319 122.5 1324C122.5 1329 122 1336 119.5 1338C117 1340 116 1342.5 107 1347.5C98 1352.5 85.5 1355.5 82 1359.5C77.9274 1364.15 80 1368 82 1372.5C83.8389 1376.64 87 1380.5 83.5 1383.5C80 1386.5 52 1385.5 46 1385C38.5926 1384.38 32 1379.5 26.5 1381C22 1382.23 17 1385.5 18.5 1393C20 1400.5 30.5 1398.5 32.5 1405C34.5 1411.5 31.5 1414.12 28 1418.5C24.5 1422.88 18.5 1433 17.5 1436C16.7411 1438.28 16.1667 1445 15.5 1448M8 1028C16.8 1038.4 24 1043.33 26.5 1044.5C29.6667 1045 36.5 1046.5 38.5 1048.5C41 1051 48.5 1058 51.5 1059.5C54.5 1061 59.5 1063 62 1065.5C66.0311 1069.53 71.5 1083 75.5 1086.5C79.5 1090 79.5 1096.5 79.5 1101C79.5 1105.5 80 1108 81.5 1113C83 1118 81.1757 1120.18 85 1124C88 1127 93 1129.5 93.5 1132C94 1134.5 95 1144 91.5 1146C88 1148 84.5 1147.5 83 1146C81.5 1144.5 79.5 1140.5 80 1136C80.5 1131.5 79.5 1126.5 77.5 1124C75.5 1121.5 66 1116.5 63.5 1114.5C61 1112.5 51.5 1108 47 1103C43.8445 1099.49 36.5 1092.5 33 1090C29.5476 1087.53 22.2668 1084.88 19 1079C16.5 1074.5 14.5 1071.5 13 1069C9.62466 1063.37 3.33333 1060.83 2.5 1060.5M8 1090C12.5 1092.5 22.5 1098.6 26.5 1103C31.5 1108.5 39 1114 43.5 1121C48 1128 55.5 1136 58.5 1145C61.5 1154 67 1172 68.5 1183C69.9924 1193.94 67.8619 1207.64 66.5 1214C65 1221 63.8571 1230.5 58.5 1238C53.5 1245 48 1253.5 44 1258C40.4069 1262.04 28 1283.5 20.5 1290C14.8829 1294.87 6.5 1298.5 2.5 1297.5M6.5 1108.5C10.1667 1110.5 17.1349 1115.54 20 1118C23.5 1121 27 1122.5 28 1128C29 1133.5 27.5 1141.5 30.5 1145C33.5 1148.5 49.5682 1159.7 51 1164C52.5 1168.5 53.5 1178 52.5 1184C51.6147 1189.31 54.3614 1200.94 49.5 1206.5C42.5 1214.5 36.5 1216.5 33 1223C31.9399 1224.97 31.2642 1233.38 29 1237L28.8986 1237.16C26.3931 1241.17 22.4732 1247.45 20.5 1243.5C19 1240.5 21 1232.5 22.5 1229C23.3121 1227.11 23.5 1220 24 1214.5L24.0149 1214.34C24.2393 1211.94 25.307 1200.5 17.5 1200.5C8.7 1200.5 1.5 1202.5 0.5 1201.5M1702.5 1.5C1708.5 22 1708.5 16.9822 1708.5 24C1708.5 31 1709 34 1710.5 37C1712 40 1712 45 1714 49.5C1716 54 1718 61.5 1719 65.5C1720 69.5 1715.5 75 1714 77.5C1712.5 80 1711 85 1711 89C1711 92 1709.5 98.5 1712 103C1714.5 107.5 1714 111 1719 114.5C1723 117.3 1724.45 117.667 1728 119C1732 120.5 1740.33 126.833 1744.5 130C1747.33 132.833 1753.9 140.1 1757.5 144.5C1762 150 1762 150 1769.5 157C1777 164 1779 165.5 1785 172C1791 178.5 1791.5 181 1796 184.5C1800.5 188 1807.47 181 1811.5 181C1816.5 181 1822 189.5 1825.5 194.5C1827.83 197.5 1833.1 205 1835.5 211C1838.5 218.5 1840 222 1843 226.5C1846 231 1851 236 1853 241C1855 246 1863.5 255.5 1867 260.5C1870.5 265.5 1872.5 275 1873 278C1873.5 281 1877.63 292.338 1878.5 297C1880 305 1891.5 317 1893.5 319C1895.17 320.167 1898.6 324.4 1899 332C1899.5 341.5 1895.25 349.5 1894 351C1891.5 354 1877 349.5 1873.5 355C1870 360.5 1867.5 362 1870.5 367.5C1873.5 373 1877.5 375 1875.5 379.5C1873.5 384 1867.5 387 1869.5 392.5C1871.5 398 1871.5 398 1878 401C1884.5 404 1883.5 407.5 1890 406C1896.5 404.5 1901.5 410.5 1902 412.5C1902.5 414.5 1902 421.5 1910.5 423.5C1919 425.5 1927 423 1922.5 434.5C1918 446 1914.5 442 1914 445.5C1913.5 449 1915 453 1921.5 452C1928 451 1934.5 450.5 1940 455C1945.5 459.5 1956 473 1966.5 477.5C1977 482 1978.5 486 1988.5 489C1998.5 492 1998.5 495.5 2006 498C2013.5 500.5 2017.5 503.5 2019.5 505C2021.5 506.5 2028.5 511 2029.5 515C2030.5 519 2029.5 521 2034.5 524.5C2039.5 528 2041 526 2041 529.5C2041 533 2036.5 534.5 2034.5 534.5C2032.5 534.5 2025.5 534 2025.5 536C2025.5 538 2034 537.5 2038 540C2042 542.5 2046.5 548 2047 549C2047.5 550 2053 565 2053.5 569C2054 573 2055.5 578 2059 581C2062.5 584 2068 584 2071 588.5C2074 593 2065.5 598.7 2063 601.5C2058.83 606.167 2049.1 613.8 2043.5 607C2036.5 598.5 2028.65 589.324 2022 586C2015 582.5 2010.5 577 1998 577C1993.5 577 1987 576.5 1983 572.5C1981.17 570 1975.7 564 1968.5 560C1959.5 555 1956.5 554 1951 553.5C1945.5 553 1929.5 548.5 1925 548.5C1920.5 548.5 1916 546.5 1911 548C1906 549.5 1905.62 552.846 1907 554C1910 556.5 1917.5 557 1923 558.5C1928 559.864 1933.3 563.8 1934.5 567C1935.7 570.2 1938.5 572.1 1938.5 578.5C1938.5 586.5 1944.5 589 1947 591.5C1950.5 595 1962 588.038 1967 589C1971.33 589.833 1980 593.5 1984 595.5C1988 597 1993 597.8 2001 603C2011 609.5 2008.5 607.75 2013 610C2021 614 2027.5 625.5 2031.5 628C2035.5 630.5 2041.49 634.753 2051.5 631C2055.5 629.5 2058.5 627.75 2062 628C2068.31 628.451 2066.5 634 2072.5 639C2076 641.667 2083.9 648 2087.5 652C2092 657 2098.5 661.5 2102 665C2105.5 668.5 2111 675.5 2112.5 678.5C2114 681.5 2122.5 685 2125.5 690.5C2128.5 696 2136.5 714.5 2142 717.5C2147.5 720.5 2151 715 2156.5 719C2162 723 2167.5 731 2172.5 735C2177.5 739 2180.5 747 2180.5 749.5C2180.5 752 2185.5 757.5 2186.5 760C2187.5 762.5 2176.5 768 2172.5 772C2168.5 776 2161 791.5 2158 792C2155 792.5 2155 789.5 2151.5 789C2148 788.5 2144 793.5 2143.5 798C2143 802.5 2143 806.5 2140.5 807.5C2138 808.5 2124 807 2119 808.5C2114 810 2109 811 2109.5 814C2110 817 2111 814.5 2113.5 818C2116 821.5 2112 824.5 2108 826C2104 827.5 2096.5 829 2094 832.5C2091.5 836 2089 838.5 2089 844C2089 849.5 2090 853 2092.5 856.5C2095 860 2100 858 2103.5 855C2107 852 2109.5 849 2109.5 845C2109.5 841 2108.5 835.5 2112.5 832.5C2116.5 829.5 2122.5 832 2130 829C2137.5 826 2144.5 823 2150.5 822C2156.5 821 2161.5 820.5 2168 818C2174.5 815.5 2175.5 812 2179 813C2182.5 814 2176 817 2177 819.5C2178 822 2179.5 824 2183 824C2186.5 824 2189 826 2190 827.5C2191 829 2196 833 2198.5 833.5C2201 834 2203.5 835.5 2207.5 835C2211.5 834.5 2212.5 833.5 2215.5 833.5C2218.5 833.5 2219.5 833 2220.5 837C2221.5 841 2214 839.5 2209.5 840.5C2205 841.5 2203.5 838.5 2200.5 844C2197.5 849.5 2193.5 854 2196 858.5C2198.5 863 2205.5 865.5 2206.5 870.5C2207.5 875.5 2207.5 880 2210.5 884C2213.5 888 2218 881.5 2222.5 886C2227 890.5 2226 891.5 2231.5 892.5C2237 893.5 2239 891 2240.5 894C2242 897 2240.5 899 2240.5 902C2240.5 905 2240.5 905 2242.5 907C2244.5 909 2246.5 902.5 2249.5 903.5C2252.5 904.5 2258.5 902 2261 902C2263.5 902 2278 890 2282 888C2286.12 885.938 2287.5 885 2293.5 885C2303.67 884.667 2325.6 884.4 2332 886C2340 888 2340.5 890 2345.5 890C2350.5 890 2352 886 2356 886C2360 886 2363.5 887.5 2365 890C2366.5 892.5 2367 896.5 2370 897.5C2373 898.5 2379.5 896 2381.5 895C2383.5 894 2389 895 2391.5 892.5C2394 890 2399 881 2403 880.5C2407 880 2417 879 2420.5 882.5C2424 886 2429 890.5 2431.5 894C2434 897.5 2438.5 898.5 2440 903.5C2441.5 908.5 2439 920.5 2441 923C2443 925.5 2442 927 2442 931C2442 935 2435.5 934.5 2433 939.5C2430.5 944.5 2432.5 946.5 2428 950C2423.5 953.5 2421.5 959 2416.5 960C2411.5 961 2410 956 2405 958C2400 960 2396 969.5 2396 974C2396 978.5 2393.5 997.5 2392.5 1002.5C2391.5 1007.5 2391 1015.5 2392.5 1019C2394 1022.5 2393 1026.5 2395 1031L2395.16 1031.36C2397.07 1035.65 2398.29 1038.41 2400.5 1041.5C2403 1045 2409 1051.5 2411 1055.5C2415.5 1066 2421.5 1069 2428 1073C2435.5 1077.62 2444.48 1082.94 2453.5 1087C2463.5 1091.5 2479.17 1085 2488.5 1082C2495.33 1077.5 2506.48 1066.11 2511 1062C2516.5 1057 2529.08 1059.82 2533 1062C2537.5 1064.5 2540 1067.5 2546 1071C2553.35 1075.29 2558.5 1069.5 2561.5 1063C2564.5 1056.5 2570.5 1050 2572 1050.5M43 4C56.2257 21.2236 65.5439 35.5433 68.5497 40.5501L80 61.5C81.9269 64.9203 81.9637 72.0326 83.078 77.601C84.1923 83.1694 89.0897 86.1127 99.1092 107.642C100.312 110.045 101.948 112.315 102.616 113.15C107.125 116.988 116.443 125.066 117.645 126.668C119.148 128.671 118.647 131.174 120.651 134.179C122.655 137.183 123.657 136.682 126.162 140.187C128.667 143.692 131.172 151.402 134.177 162.217C136.682 171.229 139.118 173.4 140.189 175.235C143.696 181.243 151.637 194.221 156.5 197C160 199 160.729 199.368 162.733 199.769C165.238 200.269 176.76 203.774 181.77 209.782C183.857 212.286 180.768 223.802 179.265 232.313C179.098 233.815 179.165 236.92 180.768 237.32C184.776 237.32 191.589 233.014 192.792 233.815C194.294 234.149 196.198 235.317 197 237.32C198.002 239.824 197.801 243.328 199.304 244.83C200.807 246.332 204.815 250.338 205.316 251.339C205.817 252.341 205.316 254.343 205.316 256.847C205.316 258.85 195.296 263.857 192.792 270.866C193.126 272.869 194.094 276.774 195.296 276.374C199.304 276.374 200.306 272.869 205.316 272.869C208.322 272.869 206.656 276.374 208.322 279.879C211.495 286.554 215.652 291.595 222 298.5C228 304 236.604 306.08 245.5 311C249.007 313.503 253.724 317.798 257.5 322.5C262.826 329.134 250.926 334.52 239 338.5C232.829 340.559 226.652 342.795 222.85 343.466C215.5 344.762 200.707 344.267 198.302 343.466C195.296 342.464 190.287 339.961 187.281 339.46C184.275 338.96 178.263 342.464 175.758 342.464C173.254 342.464 162.299 339.939 159.226 340.962C156.154 341.986 149.207 350.475 144.197 351.477C139.187 352.478 126.663 357.986 119.649 360.489C112.636 362.993 102.115 355.482 88.0878 355.482C79.5712 355.482 63.7062 357.685 60.5 360.489C57.6667 362.826 53 369 52.5 374C51.9811 379.189 52.2711 382.398 53 387.5C54 394.5 58.0254 405.682 59.5 409C61.5 413.5 66.3 424.8 77.5 430C85.5 434.5 89 449 91 453.5C92.9764 457.947 93.5 472 96.5 478.5C102.5 488.5 117 497 123 501.5C128 505.25 125 517.5 126 520C127.5 523.75 131 527.5 135 529.5C139 531.5 143.5 534 158.5 539C162.5 540.333 167.5 540 169.5 544C170.5 549 173 559.5 175 561.5C175.5 562 178.3 562.9 185.5 562.5C194.5 562 194 556 201 557.5C208 559 211.5 563.5 213 565.5C214.5 567.5 220.188 582 221.5 585.5C223 589.5 225.5 598.5 225.5 603.5C225.833 607.167 227.683 616.92 235.5 623C240 626.5 238.5 641 238.5 652C238.5 657.5 238 661 237 670C233.5 689 223 701.5 215 718C214.333 720 213.9 725.2 217.5 730C222 736 235 755 270 765C277.2 766.2 279.167 774.5 283 779.5C286.833 784.5 296.9 796 310.5 800C324 805.5 350.4 817.3 354 820.5C357.5 823 361.5 828.5 362.5 832C364.357 838.5 365.5 844 366 851C367 856.5 370 860 372 861.5C373 862.333 374.773 863.307 376 863C380 862 386 856.5 389.5 853C394 848.5 394.6 836.2 397 835C401 834 400.5 839.5 403.5 839.5C408.5 839 416.7 833.2 417.5 832C421.333 826.167 429.8 812 433 802C437 789.5 455 762 457 759.5C459 757 468.051 750.846 469 748C470 745 471.5 737 473 733.5C475.067 728.676 489.5 693 492 686.5C493.874 681.628 494 667.5 495 662C496.091 656 510.566 650 515 650C522 650 537.5 652 538.5 656C539.238 658.951 539.5 672.5 538 675.5C536.176 679.149 535.5 693.5 536 700C536.5 706.5 537.608 731.023 535 734.5C533.5 736.5 522.5 753 520.5 757.5C517.226 764.867 489 796.5 478.5 810.5C477.5 812.5 475.9 818.1 477.5 820.5C479.5 823.5 486 827 490 835C494 843 491 850 490.5 852.5C490.1 854.5 486.667 860 484 864.5C481.5 870.5 483.5 872.8 481.5 874C479 875.5 467 881.5 463.5 884C461.667 886.167 459.153 889.388 458.5 892C458 894 458.5 896 457 900C456.445 901.48 442.5 912.5 441.5 919C440.436 925.919 441 927 443 928C446.256 929.628 450.5 929 452.5 931C455.5 934 450.664 941.713 449 944C445 949.5 435 956.667 433.5 958C432 959.333 428.8 961.9 428 961.5C427 961 425.5 960.5 425 957.5C424.419 954.013 422 948 425.5 944.75C428.223 942.221 435.5 932.5 429.5 934L417.5 944.75C414.5 947.667 407.9 954 405.5 956C402.5 958.5 391 972 387 976C382.877 980.123 353.5 1018 352 1019.5C350.333 1022.17 347.943 1026.34 347.5 1029C347 1032 345.5 1040 344.5 1043C343.333 1046.5 340.334 1049.83 339 1056.5C338 1061.5 340.294 1076.88 336.5 1087.5C331.5 1101.5 325 1100 317 1119C316.167 1120.67 314.39 1125.21 314 1129.5C313.5 1135 316.5 1156.5 317 1162.5C317.667 1166.67 319.2 1175.4 320 1177C321 1179 322 1181.5 322 1183.5C322 1185.5 320.5 1196.5 322 1204.5C323.5 1212.5 330 1228.5 331 1234.5C332 1240.5 332 1259.5 332.5 1260.5C333 1261.5 337.5 1271.5 342.5 1276C347.5 1280.5 349.5 1278 355.5 1281C361.5 1284 363.5 1287 364.5 1292C365.5 1297 364 1308.5 366.5 1315.5C369 1322.5 371 1328.5 376 1336.5C381 1344.5 389 1366.5 395 1369C401 1371.5 405.5 1373 407 1374.5C408.5 1376 410 1380 418 1385.5C426 1391 429.5 1391 434.5 1396C439.5 1401 440.5 1405 445 1407.5C449.5 1410 474.069 1422.52 479 1424C484 1425.5 491 1430 499 1432C507 1434 510.5 1424.5 519 1424.5C527.5 1424.5 530.172 1426.38 533 1428.5C539 1433 543 1434.5 546.5 1437.5C550 1440.5 554.5 1445 554.5 1445.5M824 2C814 14 801 33 797 36.5C791.5 39.1667 779.7 44.6 776.5 45C773.3 45.4 769.167 44.8333 767.5 44.5C768.833 40.5 771.4 32 771 30C770.5 27.5 770.5 27 768 26C765.5 25 762.5 29.5 761.5 31C760.5 32.5 756 40 756 41.5C756 43 755 51.5 754 52C753 52.5 748 62 745 63.5C742 65 736.5 71.5 731.5 78C726.5 84.5 729.5 84.5 727.5 86.5C725.5 88.5 723 91.5 720 91C717 90.5 714.5 86 714.5 84.5C714.5 83 720 75 720 74C718.8 72 714.167 75.8333 712 78C707.667 83.1667 698.8 93.7 698 94.5C697 95.5 680 115 677 119C674 123 667 135 666 137.5C665 140 664 145 665 147C666 149 668.5 151.5 673.5 154.5C678.5 157.5 685.5 157 678 165.5C673.5 172 674.5 175 672 181C669.5 187 670.529 182.768 667.5 189.5C663 199.5 672 205.5 677 208.5C681 211.5 691 209.5 696 211.5C701 213.5 712 229.5 717.5 230.5C723 231.5 735 229.5 736.5 232C738 234.5 744.5 240.5 742 244C739.5 247.5 735.5 248 735.5 250.5C735.5 252.303 738.5 254.5 738.5 256.5C738.5 265.555 724.333 266.833 717.5 272C715.5 272.667 711.4 274.5 711 276.5C710.5 279 709 288.5 711 291.5C713 294.5 718.162 300.252 720.5 307.5C725.5 323 722 313.5 728 337C729.833 345.333 730.734 357.468 733.5 363C735 366 735.975 368.071 738 370.5C740.5 373.5 747.929 378.381 754 388.5C757 393.5 763.727 393 771.5 397.5C781 403 793.212 405.5 797.5 405.5C804.5 405.5 828.738 396.5 836.5 396.5C848 396.5 856.5 413 858 415C860 417.5 874 416.5 879.5 418.5C885 420.5 887.5 424 894.5 424.5C900.1 424.9 922.833 424.667 933.5 424.5C942 423.5 953.572 416.214 965 410.5C984 401 999.138 398.948 1005 395.5C1013.5 390.5 1017 391 1020.5 383C1022.67 377.667 1028.2 367 1033 367C1039 367 1039.5 377 1043 377C1045.5 377 1054 370 1055.5 366.5C1057 363 1074 356.5 1074 352C1074 347.5 1072 342 1072 338.5C1072 335 1076 325.5 1078 323C1080 320.5 1086 307.5 1088 305.5C1090 303.5 1106.5 288 1122 276.5C1137.5 265 1141 261.5 1147.5 255C1154 248.5 1156.5 243 1164 238.5C1171.5 234 1185 232 1189.5 230C1194 228 1214 215.5 1220.5 214C1227 212.5 1230 217.5 1237 217C1244 216.5 1267.5 211.5 1273 210C1278.5 208.5 1289 209.5 1300.5 207.5C1312 205.5 1305.5 207.5 1318 204.5C1326 202 1339.27 191.033 1345.5 186.5C1351 182.5 1359.5 177.7 1361.5 176.5C1364 175 1381.5 163 1383 162C1384.5 161 1390.5 154 1394.5 154C1398.5 154 1404.5 154 1409 153C1413.5 152 1415.94 151 1418 151C1420.5 151 1422 152 1423.5 152.5C1425 153 1428 155.5 1428 159C1428 162.5 1425.5 170 1425.5 172.5C1425.5 174 1426.5 175.5 1428 175C1429.5 174.5 1431.5 172 1432.5 172C1433.5 172 1437.5 174.5 1437.5 176.5C1437.5 178.5 1439 189 1435.5 190C1432 191 1423.06 192.562 1421 190.5C1418.5 188 1415.5 183.5 1413 180.5C1410.5 177.5 1401.63 177.053 1398.5 177.5C1391.5 178.5 1384.91 185.105 1382 188.5C1379 192 1360 211.5 1357 219.5C1354.17 227.049 1354.5 235 1358 238C1361.5 241 1376.78 256.856 1378.5 258C1380 259 1381 260.5 1385 260.5C1389 260.5 1396 256.5 1398.5 259C1401 261.5 1405 265.5 1404.5 276C1404.67 278.333 1404.7 284.5 1403.5 290.5C1402 298 1402 301 1398.5 304C1395 307 1391.5 308.5 1389.5 308.5C1387.5 308.5 1374.5 302 1370 301C1365.5 300 1356.5 300 1355 300.5C1353.5 301 1344 304.5 1340 307L1339.71 307.183C1335.58 309.761 1326.98 315.131 1326 320.5C1324.5 325.5 1324.5 334.5 1326 338.5C1327.17 342 1330 349.4 1332 351C1334 352.6 1340 348.875 1342.5 352C1346.5 357 1343.78 365 1346.5 368.5C1350 373 1352 370 1360.5 371.5C1373.5 372.5 1360.67 381 1358 384.5C1355.5 387.333 1349.7 393.2 1346.5 394C1342.5 395 1339 391 1333 392.5C1327 394 1323.5 400.5 1320 405C1317.25 408.53 1303.67 409.833 1296 411.5C1290.83 413.333 1277.9 418.2 1267.5 423C1254.5 429 1251 424 1243 429C1235 434 1229.5 439.786 1224.5 440.5C1215.5 441.786 1210.5 436 1208.5 433C1206.48 429.971 1209.5 419 1206 416C1202.5 413 1201.77 413.432 1200.5 409C1199.5 405.5 1200.5 397 1200.5 386C1200.5 377 1204.53 371.611 1203.5 368C1202.33 363.921 1195 362.5 1191 358.5C1187.96 355.459 1188 351 1183.5 349.5C1177.26 347.42 1157.5 347 1154.5 349.5C1141.5 355.667 1114.41 370 1111.5 370C1104 370 1105.5 364.5 1101 366.5C1096.79 368.372 1097.5 375.5 1087 377C1084.67 377.167 1078.4 378.5 1072 382.5C1064 387.5 1069 388.5 1061 393.5C1053 398.5 1050 406 1048 409.5C1046 413 1046.5 419.5 1037.5 430C1028.5 440.5 1026 441.647 1018.5 446.5C1010 452 992.5 462 979 468C974.592 469.959 973.5 474 970 478C966.5 482 963.5 484 959.5 487.5C952.479 493.644 939.5 498.5 935 501.5C933.167 501.5 929.2 502.2 928 505C926.5 508.5 927 526 924.5 529.5C922 533 925 560.5 923 564.5C921 568.5 916 572.5 916 576.5C916 580.5 918.5 580.5 918 583C917.5 585.5 913 587 910.5 589.5C907.459 592.541 906.5 597 903 599C899.5 601 887 607 883 612C879 617 880.5 620.5 882 622C884 624 891 627 894 628.5C897.688 630.344 909.5 627 920 630.5C929.593 633.698 935.404 627.79 938.5 626.5C944.5 624 954.5 618 961 612.5C966.674 607.699 981.5 603 986 602.5C990.5 602 996.5 600.5 1003 603C1008.2 605 1003.33 615.5 1000 620.5C998 623.5 996.9 627.9 994.5 629.5C991.5 631.5 980 638 975.5 638.5C971 639 948.5 648 942 651.5C935.5 655 910.717 654.915 906 653.5C901 652 886 658.5 879.5 660C873 661.5 870 657 864.5 659.5C859 662 851.5 666 847 666C839.72 666 823 675.5 815.5 680.5C806.338 686.608 805 696.5 803.5 700.5C802 704.5 801.5 703.5 802 708.5C802.5 713.5 806.5 710.5 806.5 717.5C806.5 724.5 800.5 731.5 797 732C793.5 732.5 789.5 730 785 732.5C780.5 735 774.5 743.5 772 748C769.5 752.5 756.5 748 747 750.5C739.025 752.599 733.167 756.833 731 758C723.333 762.667 706.5 774.2 700.5 783C693 794 690.5 810 685.5 821C680.5 832 680.5 842.5 672 849.5C663.5 856.5 658.5 862.5 654 867C649.5 871.5 641.5 879.5 634.5 882C627.5 884.5 620 888.5 617.5 890C615 891.5 601 900.5 599 903C597 905.5 594.588 908.72 593 911.5C591 915 574.5 928 573 932.5C571.5 937 570.5 941.5 573 944C575.5 946.5 581 950.5 582 952C583 953.5 585 960.5 589 965.5C593 970.5 601 976 602 981.5C603 987 605.5 991 605 994.5C604.5 998 604 998.5 600.5 997.5C597 996.5 591.5 991.5 583.5 992.5C575.5 993.5 569.5 996 565.5 998C559.5 1000.5 555 1000.5 547 1003.5C540.6 1005.9 535.667 1012.17 534 1015C532.333 1018 529.4 1023.7 529 1026.5C528.712 1028.51 528.807 1033 529 1038.5C529.142 1042.56 529.513 1047.89 531 1051.5C534.5 1060 534.5 1062 539.5 1068.5C544.5 1075 553.5 1083.5 559 1087.5C565.533 1092.25 573 1092 580.5 1098C588 1104 582.5 1113.5 592.5 1117C602.5 1120.5 602.5 1116.5 608.5 1112C614.5 1107.5 619.5 1107 622 1110C624.5 1113 624 1118 640.5 1121C657 1124 654.5 1127 664 1122C673.5 1117 677.5 1116.5 682 1112C686.5 1107.5 689.5 1104 692.5 1100.5C698.5 1092.5 696.76 1102.56 697.5 1107C698 1110 699 1112 701.5 1121C703.305 1127.5 716 1116 721 1109C722.667 1105.17 725.395 1095.78 728 1091C731 1085.5 735 1080.5 737 1078.5C746.5 1069 752.5 1083 752.5 1088.5C752.5 1096 751.5 1101 753.5 1108C755.5 1115 758.5 1129 759.5 1131.5C759.833 1133.67 761.2 1138.6 764 1141C767.5 1144 770 1151 770 1155.5C770 1160 776.5 1166 778 1171C779 1174.17 782.1 1181.3 786.5 1184.5C792 1188.5 796.5 1187 802 1190C807.5 1193 818.5 1200.5 824 1203C828.4 1205 835.833 1209.17 839 1211C842.167 1212.5 849.9 1216.3 855.5 1219.5C862.5 1223.5 865.5 1223 871.5 1228C877.5 1233 876.5 1237.5 881.5 1240.5C886.5 1243.5 894 1246.5 896.5 1250.5C899 1254.5 902.5 1260 907 1262C911.5 1264 918.5 1267.5 921.5 1271C924.5 1274.5 929 1280 930 1281.5C931 1283 933 1283.5 934 1287.5C935 1291.5 934.5 1297.5 937 1302C939.5 1306.5 940 1310.5 948.5 1317C957 1323.5 957 1329.5 963.5 1337C970.219 1344.75 978.5 1351 981.5 1355.5C984.5 1360 981 1364 986.5 1372C992 1380 993 1377.5 998.5 1387C1004 1396.5 998 1400.5 1003.5 1407C1009 1413.5 1016 1421.5 1016.5 1426C1017 1430.5 1016 1430.5 1018.5 1435.5C1021 1440.5 1023 1441.5 1023.5 1445.5M2296 613.5C2298 614.7 2300 621 2297.5 622C2293.33 623.667 2292.5 623 2290.5 621.5C2287.17 619 2286.5 616 2288 614C2290.26 610.981 2292.5 611.4 2296 613.5ZM588.5 296C591.3 295.2 592.875 295.5 593 296.5C593.167 297.833 592.935 299.855 591 300.5C589.5 301 589 301.5 587 299.5C585.4 297.9 587.167 296.5 588.5 296ZM2271.5 567.5C2271.12 562.591 2278.5 566 2278.5 566C2278.5 566 2285.2 568.401 2287.74 573.5C2288.74 575.5 2288.74 580.5 2294.24 587.5C2299.74 594.5 2301.24 594 2302.74 601C2304.24 608 2294.24 605 2294.24 605C2294.24 605 2283.24 601.5 2279.74 598C2278.38 596.632 2276.74 595.5 2276.24 590.5C2274.74 586 2273.16 585.672 2272.24 582.5C2270.35 575.947 2271.93 573 2271.5 567.5ZM1243.5 1129.5C1247 1138.5 1249.82 1140.5 1252.5 1144C1259 1152.5 1261 1152.76 1261 1157.5C1261 1161 1263 1162 1266.5 1163C1270 1164 1276 1162.5 1279.5 1165C1283 1167.5 1293.5 1173 1295.5 1180.5C1297.5 1188 1300 1191 1302 1192C1304 1193 1311 1195.5 1311 1199.5C1311 1203.5 1308.5 1211 1311 1215.5C1313.5 1220 1322.5 1224 1322 1231C1321.5 1238 1321 1239 1320 1240.5C1319 1242 1313.5 1247 1311 1247.5C1308.5 1248 1301.5 1247.5 1299.5 1244C1297.5 1240.5 1293 1233 1293 1228.5C1293 1224 1294 1204.5 1292.5 1200C1291 1195.5 1290 1191.5 1286.5 1190.5C1283 1189.5 1276 1188 1272.5 1190.5C1269 1193 1262.5 1200.5 1258.5 1199.5C1254.5 1198.5 1248 1194.5 1242 1193C1235.83 1191.46 1231.5 1189.5 1227 1183C1222.67 1176.74 1219 1165.5 1218.5 1159C1218 1152.5 1216 1145.5 1222.5 1142C1229 1138.5 1232.5 1139 1234.5 1137.5C1236.5 1136 1238 1134 1235.5 1133.5C1233 1133 1228.5 1133.5 1227 1131.5C1225.5 1129.5 1224 1125.5 1226 1122C1228 1118.5 1228.5 1117.5 1231 1115C1236.5 1109.5 1241.94 1125.49 1243.5 1129.5ZM2061.5 228.5C2061.5 226 2067 223.5 2068.5 226C2070 228.5 2069.5 229 2068.5 230.5C2067.5 232 2066.5 234 2064 233C2062 232.2 2061.5 229.667 2061.5 228.5ZM2086.5 597C2088 595 2092.5 595.5 2093.5 597C2094.5 598.5 2093.5 601 2091.5 601.5C2089.5 602 2086.5 602 2086 600.5C2085.62 599.362 2085.6 598.2 2086.5 597ZM137 297C141.5 299.842 144.7 302.5 145.5 306.5C146.3 310.5 140.5 308.333 137 308C134.833 307 130.4 306.6 130 303C129.6 299.4 133.5 294.789 137 297ZM1278.5 1272C1283.5 1271.09 1285.5 1273.5 1289 1279C1292.5 1284.5 1294.21 1285.22 1292.5 1289.5C1291.5 1292 1290.67 1293 1289 1295C1286.5 1298 1281.99 1287.74 1280.5 1285.5C1278.5 1282.5 1272.5 1279.5 1273.5 1276C1274.3 1273.2 1276.67 1272.33 1278.5 1272ZM1400 1307.5C1401.17 1306.5 1404.3 1304.7 1407.5 1305.5C1411.5 1306.5 1414 1307 1415.5 1310C1417 1313 1405 1316 1403.5 1321.5C1402 1327 1399.5 1331.5 1396 1332.5C1392.5 1333.5 1388.5 1334.5 1387 1333C1385.5 1331.5 1385.88 1325.24 1387 1323C1388 1321 1391.38 1315.15 1393 1313C1394.5 1311 1398.5 1309 1400 1307.5ZM401 984C405.583 979 407.5 978.5 409.5 978.5C411.5 978.5 413.7 979.6 412.5 982C411 985 403 998 398 998.5C393 999 393.5 995 394.5 992.5C395.3 990.5 399.167 986 401 984ZM2449.5 1004.5C2457.5 1001 2459.5 1001.14 2464.5 1002.5C2470 1004 2471.5 1007.17 2472.5 1009.5C2474 1013 2474 1018.5 2472.5 1022C2471 1025.5 2469.5 1028 2466 1029C2462.5 1030 2455.5 1030.5 2453 1029C2450.5 1027.5 2445 1025.5 2444 1021C2443 1016.5 2442.38 1011.5 2445 1008C2447 1005.33 2448.5 1005 2449.5 1004.5ZM2429 999C2435 990 2440 985.5 2450 983.5C2460 981.5 2467 983.5 2472 985.5C2477 987.5 2483 987 2486.5 991C2490 995 2492 995.5 2492 1000.5C2492 1005.5 2492.5 1021 2490 1027.5C2487.5 1034 2489.5 1035 2485.5 1039C2481.5 1043 2468.48 1048.55 2464 1049C2459 1049.5 2450 1051 2444 1047C2438 1043 2431.83 1037.17 2429.5 1032.5C2427 1027.5 2424.5 1023.5 2424.5 1016.5C2424.5 1010.9 2426.33 1003 2429 999ZM1987.5 1208.5C1990 1196 2003 1182 2012.5 1181.5C2022 1181 2023.5 1179.5 2027 1185C2030.5 1190.5 2036 1197 2036.5 1202C2037 1207 2037 1210.5 2034.5 1209.5C2032 1208.5 2032 1199.5 2027 1199C2022 1198.5 2012 1200 2009 1202C2005.83 1204.11 1998 1208.5 1995.5 1211.5C1993.24 1214.22 1992.5 1217 1990 1217C1988 1217 1986.77 1212.16 1987.5 1208.5ZM2001.5 1227C2007.5 1228.71 2005.5 1234.5 2012.5 1233.5C2019.5 1232.5 2026 1226 2027 1228.5C2028 1231 2025.5 1233.5 2023.5 1235C2021.5 1236.5 2014.5 1239.5 2011 1239C2007.5 1238.5 2004 1238.5 2001.5 1236C1999 1233.5 1997.5 1232 1997.5 1230.5C1997.5 1229 1998 1226 2001.5 1227ZM1485 154.5C1511 157 1526 159.5 1530.5 160C1539.5 161 1559.5 158.5 1567 157.5C1569.83 157.123 1573 160 1577.5 164.5C1581.53 168.531 1587 172 1587 175C1587 177.4 1585.5 180.571 1583.5 182C1580.02 184.483 1574 187.5 1569.5 186C1565 184.5 1561.5 179.5 1551.5 179.5C1541.5 179.5 1528 184 1525 184C1522 184 1509.5 183.5 1501 181.5C1492.5 179.5 1482 181 1476.5 175C1472.1 170.2 1475.17 162 1477.5 158C1479.25 155 1480 154.019 1485 154.5ZM1808 908.5C1811 905.5 1819.5 901.731 1825 903C1831.5 904.5 1835.88 908.964 1838 912.5C1841 917.5 1842 920 1842 923.5C1842 929.09 1837.5 938 1833 941C1828.5 944 1824.5 946 1820.5 946C1816.5 946 1813 945 1809 942C1804.75 938.811 1800 937 1799 931.5C1798 926 1799 921 1801 917.5C1802.6 914.7 1806.17 910.333 1808 908.5ZM1738 926C1739.5 925.5 1743.9 924.4 1745.5 924C1747.5 923.5 1750 925.5 1751 928C1752 930.5 1751 933.5 1749.5 935.5C1748 937.5 1740.72 943.14 1738 944.5C1735 946 1732.5 948 1730 942.5C1727.5 937 1729.5 930.5 1732.5 928.5C1734.9 926.9 1737.17 926.167 1738 926ZM810 453.5C808.5 451 812.5 447.929 814.5 448.5C818 449.5 818 451.5 817 453.5C816.329 454.842 814 456.5 812.5 456C811.427 455.642 811.2 455.5 810 453.5ZM863.5 435C865.1 431.8 867.5 431.667 868.5 432C869.833 432.333 871.5 434.1 869.5 436.5C867 439.5 867 441.5 864.5 440.5C862.5 439.7 863 436.5 863.5 435ZM917.5 436.5C917.5 432.5 922 431 924 433C926 435 927 437 925.5 438.5C924 440 920.5 442.5 919 441C917.8 439.8 917.5 437.5 917.5 436.5ZM906.5 464C908 460 909 457.5 911.5 455C914.05 452.45 916.5 457 916 459C915.5 461 914.5 463.5 913.5 464.5C912.71 465.291 909 468 907 467C905.4 466.2 906.076 465.131 906.5 464ZM899.5 508.5C903.5 503 903.5 502.286 906 503C909.5 504 910.643 506.5 911 509C911.5 512.5 909.5 520.5 907 522.5C904.381 524.595 901.5 526 899 523C896.5 520 894 517 895.5 514C896.7 511.6 898.5 509.875 899.5 508.5ZM771 693.5C772.5 690.5 772.139 689.74 774 688.5C777 686.5 777 693.5 782 694C784.679 694.268 787 700 783 700.5C779 701 774.5 702 773 700.5C771.351 698.851 770.25 695 771 693.5ZM794.5 746.5C797.5 743 797 738.5 801.5 736C806 733.5 805 737.5 806 739.5C807 741.5 808.5 742.5 808.5 744.5C808.5 746.5 804.5 752 801 752.5C797.5 753 792 754.5 789 752.5C786.6 750.9 792.442 748.901 794.5 746.5ZM723.5 295C726.7 290.2 728 290 730.5 291.5C731.667 292.5 733.8 295.4 733 297C732 299 731.5 301 729.5 302C727.656 302.922 724.5 304 723.5 301.5C722.7 299.5 722.5 297.5 723.5 295ZM1046.5 568.5C1054.5 566 1057 570 1057 572.5C1057 575 1052.5 580 1048.5 584C1044.5 588 1044.5 592 1040.5 592.5C1036.5 593 1028.5 593 1026 596C1023.5 599 1022.5 608 1019.5 606.5C1016.5 605 1015.5 599 1017.5 597C1019.5 595 1021.76 589.649 1023 588C1024.5 586 1026.83 582 1028.5 580C1030.58 577.5 1034.68 576.361 1038 574.5C1040.99 572.827 1042.71 569.684 1046.5 568.5ZM1157.5 501C1173.5 487.5 1163.5 494 1174.5 487C1185.5 480 1184 481.5 1187.5 479C1191.25 476.321 1192 473.5 1191.5 466C1191 458.5 1192.2 454.199 1194 451.5C1195.5 449.25 1198.63 447.709 1201 448.5C1202.5 449 1205 449.5 1204.5 452C1203.7 456 1198.5 459.5 1198.5 465C1198.5 470.5 1196.5 475 1195.5 477.5C1194.5 480 1191 486 1187 491C1183 496 1179 501.5 1172.5 505C1166 508.5 1163 513 1158.5 514C1154 515 1152.5 512.415 1152.5 509.5C1152.5 506.5 1154.5 503.531 1157.5 501ZM1335.5 381C1336.5 378.667 1339 377 1342 378C1345 379 1345 381 1343 383C1340.45 385.55 1339 387.5 1336 386C1333.6 384.8 1335 382.167 1335.5 381ZM1621.5 551C1626.83 557.393 1627 559 1627.5 565.5C1628 572 1628 573 1629 577C1630.09 581.366 1629.5 584.5 1627 586C1624.5 587.5 1618.5 579.5 1616.5 576.5C1614.5 573.5 1610.95 571.828 1609.5 566.5C1608 561 1607.5 554.5 1610.5 551C1612.9 548.2 1619 548 1621.5 551ZM1729 645.5C1730 642 1729.5 636 1734.5 635.5C1739.5 635 1736.5 642.5 1735.5 645.5C1734.5 648.5 1736.5 652.5 1733 654.5C1729.5 656.5 1727.5 655 1727.5 652C1727.5 649.6 1728 649 1729 645.5ZM1923 773.5C1927.67 770 1931.5 767 1934 767C1937.5 767 1944 770.5 1944 773.5C1944 776.5 1943.5 778 1940 780C1936.5 782 1931 778.5 1926 781C1921 783.5 1919.5 786 1917 784.5C1914.5 783 1916.42 779.942 1917.5 778.5C1919 776.5 1921.67 774.5 1923 773.5ZM1930 804.5C1930 801 1930.5 798.5 1933.5 796C1936.5 793.5 1936.5 798.5 1937 802C1937.5 805.5 1938 810.5 1938 815.5C1938 818.541 1936.5 832 1936.5 837C1936.5 842 1937 856.5 1935.5 861.5C1934 866.5 1933.5 870 1931 873.5C1930.12 874.736 1927 879 1925 877C1923.35 875.351 1927.86 867.5 1928.5 863C1929.5 856 1930 826 1930 824V804.5ZM1946 970.5C1946.5 966.5 1946.5 959.75 1949.5 959C1953.5 958 1958.1 962.254 1959.5 964C1961.5 966.5 1969 971.5 1966 976.5C1964.35 979.245 1957 982 1955 983C1953 984 1947 986.5 1946 982C1945.2 978.4 1945.67 973.167 1946 970.5ZM1945.5 1101.5C1944.83 1086.5 1943.7 1054.1 1944.5 1044.5C1945.5 1032.5 1943.5 1007 1945.5 1004.5C1948.3 1001 1950 1002 1952 1005.5C1954 1009 1959 1014 1959 1020.5C1959 1027 1958.5 1031 1956 1034.5C1953.5 1038 1954 1049.5 1955 1053C1956 1056.5 1958 1060.5 1958 1063C1958 1065.5 1956 1070.5 1956 1074.5C1956 1078.5 1957 1085 1959 1088.5C1961 1092 1961 1098.5 1961.5 1102C1962.21 1107 1963 1108 1961 1110.5C1959 1113 1954.5 1119.5 1950 1113.5C1946.4 1108.7 1945.5 1103.5 1945.5 1101.5ZM2140 1036C2141.24 1034.76 2144 1034 2148 1033.5C2149.22 1033.35 2156.5 1032.5 2156 1036C2155.5 1039.5 2150.5 1042.5 2147 1042.5C2143.5 1042.5 2139.5 1042.5 2138.5 1040.5C2137.7 1038.9 2139 1037 2140 1036ZM2094 731.5C2095 728.5 2100.5 724 2104.5 726.5C2108.5 729 2109.5 732.5 2107 736C2104.5 739.5 2101.5 743 2098.5 742C2094.5 740.667 2092.88 734.854 2094 731.5ZM1754 775.5C1754 771.5 1755 765.5 1757.5 765.5C1760 765.5 1763 768.5 1762.5 771C1762 773.5 1760.5 778.5 1758 780C1756 781.2 1754 778.179 1754 775.5ZM1826 535C1828.5 532.083 1830.5 531 1832 531C1835 531 1838 535 1837 536.5C1835 539.5 1823 538.5 1826 535ZM1793.5 348.5C1796.5 347.5 1800.5 346.5 1803 349C1805 351 1807 353.794 1803.5 354C1800.67 354.167 1793.35 353.569 1791 352C1789.5 351 1790.77 349.41 1793.5 348.5ZM1808.5 364C1807.7 358.4 1809.83 356.667 1811 356.5C1812.33 356.333 1815.2 356.8 1816 360C1817 364 1819.5 365 1821 365.5C1822.5 366 1825 369 1825.5 372.5C1826 376 1826 377 1822 376.5C1818 376 1816.5 374.5 1815 372.5C1813.8 370.9 1810.17 366.167 1808.5 364ZM150.5 590C154.5 585 159 583 164 581.5C169 580 176 581 179 582.5C182 584 188 588.5 190 592C192.287 596.002 193.5 603.5 193.5 608C193.5 611.5 190.93 619.57 186.5 624C184 626.5 178 631.5 171 631.5C164 631.5 156 628.5 153 625C150 621.5 146.151 615.429 145.5 612.5C144.5 608 144.5 602 146.5 597.5C148.1 593.9 149.667 590.833 150.5 590ZM162 592.5C164 591 168.5 590 172 590C177 590 181.5 593.5 183.5 597.5C184.704 599.908 187 604.5 186 610C185 615.5 180.25 619.107 177 620.5C173.5 622 167.606 622.803 164 621C161 619.5 156 618 155 612.5C154 607 154.687 602.283 156 599C157.313 595.717 160.5 593.625 162 592.5ZM1648.5 298C1645.83 300.667 1639.8 306.8 1639 312C1638 318.5 1638.5 319.5 1639 321C1639.5 322.5 1643 328 1645.5 329.5C1648 331 1654 331.5 1662 332.5C1670 333.5 1675 337.5 1681.5 339C1688 340.5 1691.09 341.713 1694.5 342.5C1701 344 1707.5 341.333 1715 343C1719.5 344 1719.5 345.5 1723.5 347.5C1727.5 349.5 1733.31 349.807 1736 352.5C1739 355.5 1745 369.5 1747.5 372.5C1750 375.5 1753.5 385 1756 388.5C1758.5 392 1765.5 405 1769.5 409C1773.5 413 1780.5 421 1782.5 426C1784.5 431 1783.5 437 1783.5 439C1783.5 441 1782.5 447.5 1784.5 451C1786.5 454.5 1787.5 457 1789 459C1791.33 462.333 1796.2 470 1797 474C1798 479 1799 483 1800 486C1801 489 1800 492 1803.5 497C1807 502 1810 503 1812.5 508.5C1815 514 1814 519 1811.5 524.5C1808.8 530.435 1811.38 528.748 1819.5 525.5C1824.5 523.5 1827.48 527.5 1833.5 527.5C1841 527.5 1839 528 1844.5 532C1845.17 532.5 1847.6 533.2 1854 534C1862 535 1862 535.5 1863 537.5C1863.95 539.397 1863.99 542.06 1863.5 544C1863 546 1861 548.5 1861.5 550.5C1862 552.5 1864.5 553.5 1866.5 555C1868.5 556.5 1869 557.5 1870.5 560C1872 562.5 1871.5 564 1873 566C1874.5 568 1878 570.5 1878.5 571C1879 571.5 1882.5 574 1884 577C1885.5 580 1886.2 580.5 1887 583.5C1887.67 586 1888.6 591.7 1889 596.5C1889.5 602.5 1890 601.5 1891 605C1891.42 606.477 1893.65 609.525 1894 612C1894.5 615.5 1879 615.5 1876 616C1871.04 616.826 1864.5 618 1863 618C1861.5 618 1853.5 620 1849 619C1844.5 618 1839.5 618 1837.5 616C1835.5 614 1830.5 609 1830 608C1825 600 1814.3 583.3 1811.5 580.5C1808 577 1798.5 566.5 1794 563.5C1789.5 560.5 1785.5 558 1780.5 557C1775.5 556 1772.5 554 1769.5 552.5C1766.5 551 1763.5 550.5 1760 550.5C1754 550.5 1755.5 541.5 1755.5 539.5C1755.83 529.333 1755.3 507.4 1750.5 501C1744.5 493 1740 492.5 1736.5 488.5C1733 484.5 1724.5 478.5 1723 477.5C1721 476.333 1716.3 472.4 1713.5 466C1710 458 1707.5 451 1704.5 447C1701.5 443 1695.5 433.5 1693 431C1690.5 428.5 1687 417.5 1684.5 414.5C1682 411.5 1683.5 409.5 1679 405.5C1674.5 401.5 1671.5 399.5 1667.5 398.5C1663.5 397.5 1662.5 396.5 1656.5 396C1650.5 395.5 1633 392.5 1628.5 390.5C1624 388.5 1622 388 1619.5 384.5C1617 381 1614.37 378.435 1613.5 374.5C1612.5 370 1609.99 365.959 1609.5 363C1609 360 1607.5 354 1607.5 350C1607.5 346 1608.5 338 1608.5 334C1608.5 330 1607.5 323 1607 319C1606.62 316 1605.9 309.3 1607.5 300.5C1609.5 289.5 1616.5 299.5 1621 300.5C1625.5 301.5 1625 302.5 1629 302C1633 301.5 1637.5 299 1639 298C1640.5 297 1643 294.5 1646.5 295C1649.3 295.4 1649.17 297.167 1648.5 298ZM343.5 48C348 42.8571 351 42 353.5 46C356 50 354.958 52.0423 353.5 53.5C352 55 350 59 346 58.5C342 58 340 58 340 55C340 52.6 341.75 50 343.5 48ZM652.5 157.5C656.5 157.5 657 159 664 161C671 163 673.5 164 670.5 168.5C668.539 171.442 663 175 657.5 176C652 177 649 176 648 170C647 164 646 161.5 648 159.5C649.6 157.9 651.667 157.5 652.5 157.5ZM844.5 408.5C848.5 408.5 848 418.5 847.5 422C847 425.5 846.5 428 844.5 429C842.5 430 839 432 837 429C835 426 833 425.5 831.5 422C830 418.5 831.5 413.5 834 411C836.5 408.5 838.5 408.5 839.5 408.5H844.5Z" stroke="black"/>
</svg>
